<?xml version="1.0" encoding="utf-8"?>
<!-- Generator: Adobe Illustrator 25.0.1, SVG Export Plug-In . SVG Version: 6.00 Build 0)  -->
<svg version="1.1" id="Layer_1" xmlns="http://www.w3.org/2000/svg" xmlns:xlink="http://www.w3.org/1999/xlink" x="0px" y="0px"
	 viewBox="0 0 100 100" style="enable-background:new 0 0 100 100;" xml:space="preserve">
<style type="text/css">
	.st0{fill:#FFFFFF;}
	.st1{fill:none;stroke:#F42D0A;stroke-miterlimit:10;}
	.st2{fill:none;stroke:#29F37A;stroke-miterlimit:10;}
	.st3{fill:none;stroke:#DD9B33;stroke-miterlimit:10;}
	.st4{fill:#DD9B33;}
	.st5{fill:#FDF9F6;}
	.st6{fill:none;stroke:#F9C285;stroke-width:0.5;stroke-miterlimit:10;}
	.st7{fill:#1A1A1A;}
	.st8{fill:#B16D00;}
	.st9{fill:#141414;}
	.st10{fill:#F4F4FD;}
	.st11{fill:#BDD1F4;}
	.st12{fill:#131936;}
	.st13{fill:#7487F2;}
	.st14{fill:#B5DFE5;}
	.st15{fill:#FD9C9B;}
	.st16{fill:#FEFEFE;}
	.st17{fill:none;}
	.st18{fill:#2F3A6B;}
	.st19{fill:#99ACE6;}
	.st20{fill:#708DF5;}
	.st21{fill:#491DF3;}
	.st22{fill:#9987F3;}
	.st23{fill:#F9C285;}
	.st24{fill:#FBE8A6;}
	.st25{fill:none;stroke:#F96D69;stroke-width:11;stroke-miterlimit:10;}
	.st26{fill:#213283;}
	.st27{opacity:0.35;fill:#BDD1F4;}
	.st28{fill:none;stroke:#F96D69;stroke-width:5;stroke-miterlimit:10;}
</style>
<g>
	<path class="st8" d="M29.21,27.62c0-1.01,0.03-1.93-0.02-2.85c-0.01-0.21-0.27-0.47-0.48-0.59c-1.95-1.13-2.85-3.07-2.33-5.06
		c0.54-2.07,2.24-3.36,4.52-3.36c12.71-0.01,25.43-0.01,38.14,0c2.25,0,3.98,1.28,4.5,3.27c0.56,2.12-0.26,3.95-2.28,5.14
		c-0.21,0.12-0.47,0.38-0.48,0.59c-0.05,0.92-0.02,1.85-0.02,2.86c1.44,0,2.79,0,4.14,0c1.5,0,2.99-0.01,4.49,0
		c1.17,0.01,1.75,0.55,1.75,1.7c0.02,3.47,0.11,6.95-0.03,10.42c-0.27,6.76-5.42,11.61-12.2,11.59c-0.68,0-1.04,0.22-1.4,0.78
		c-2,3.18-4.7,5.61-8,7.38c-0.26,0.14-0.58,0.42-0.62,0.67c-0.4,2.71-0.91,3.44-3.36,4.58c1.3,3.88,2.62,7.74,5.63,10.73
		c0.96,0.95,2.1,1.48,3.51,1.4c0.99-0.05,1.98-0.03,2.97,0c1,0.03,1.52,0.5,1.64,1.47c0.48,3.78,0.95,7.56,1.4,11.34
		c0.17,1.41-0.39,2.01-1.8,2.01c-12.6,0-25.2,0-37.8,0c-1.41,0-1.96-0.59-1.8-2c0.45-3.81,0.93-7.62,1.41-11.43
		c0.11-0.89,0.61-1.34,1.53-1.39c0.82-0.04,1.64-0.08,2.46-0.01c2.21,0.19,3.81-0.84,5.1-2.47c2.26-2.86,3.54-6.19,4.63-9.66
		c-0.12-0.07-0.21-0.13-0.3-0.17c-1.86-0.69-2.88-2.02-2.99-4c-0.03-0.54-0.17-0.84-0.68-1.1c-3.31-1.71-5.98-4.14-7.96-7.3
		c-0.4-0.64-0.82-0.83-1.54-0.84c-5.07-0.06-8.77-2.37-11.03-6.93c-0.8-1.62-1.09-3.38-1.1-5.17c-0.01-3.25-0.01-6.5,0-9.75
		c0-1.32,0.53-1.86,1.84-1.86c2.51-0.01,5.03,0,7.54,0C28.5,27.62,28.81,27.62,29.21,27.62z M67.74,24.66c-0.37,0-0.7,0-1.03,0
		c-3.13,0-6.27,0-9.4,0c-0.34,0-0.68,0-1.01-0.08c-0.69-0.16-1.06-0.61-1.09-1.32c-0.04-0.7,0.25-1.22,0.94-1.43
		c0.34-0.11,0.72-0.13,1.08-0.13c3.78-0.01,7.57,0,11.35-0.01c1.47,0,2.14-0.45,2.15-1.44c0.02-1.03-0.67-1.52-2.17-1.52
		c-12.37,0-24.74,0-37.11,0c-0.31,0-0.62,0-0.93,0.05c-0.81,0.12-1.28,0.66-1.28,1.43c0,0.77,0.48,1.33,1.26,1.46
		c0.28,0.04,0.56,0.03,0.85,0.03c3.9,0,7.79-0.01,11.69,0c1.21,0,1.88,0.73,1.7,1.78c-0.13,0.77-0.72,1.18-1.79,1.18
		c-3.25,0.01-6.5,0-9.74,0.01c-0.32,0-0.65,0.03-1.02,0.05c0,3.74-0.02,7.38,0.01,11.02c0.02,2.57-0.12,5.16,0.2,7.69
		c0.78,6.15,4.11,10.62,9.56,13.52c0.2,0.11,0.55,0.02,0.81-0.06c0.95-0.3,1.88-0.86,2.84-0.9c2.93-0.12,5.87-0.11,8.81-0.01
		c0.88,0.03,1.79,0.43,2.6,0.83c0.46,0.23,0.74,0.31,1.2,0.05c6.13-3.48,9.42-8.7,9.55-15.76c0.1-5.19,0.02-10.39,0.02-15.59
		C67.78,25.26,67.76,25.01,67.74,24.66z M33.49,79.87c-0.37,2.94-0.73,5.84-1.1,8.8c11.76,0,23.43,0,35.18,0
		c-0.37-2.97-0.73-5.87-1.1-8.8C55.48,79.87,44.55,79.87,33.49,79.87z M70.8,30.63c-0.02,0.38-0.04,0.68-0.04,0.99
		c0,2.82,0.05,5.65-0.02,8.47c-0.04,1.71-0.2,3.43-0.43,5.13c-0.14,1.04-0.5,2.04-0.78,3.11c0.31,0,0.56,0.02,0.81,0
		c4.07-0.39,7.66-4.11,7.78-8.21c0.09-3.02,0.03-6.04,0.03-9.06c0-0.13-0.06-0.26-0.09-0.42C75.66,30.63,73.29,30.63,70.8,30.63z
		 M29.13,30.66c-2.43,0-4.84,0-7.3,0c0,3.08-0.04,6.1,0.01,9.12c0.07,3.75,2.58,7.07,6.15,8.18c0.78,0.24,1.61,0.32,2.55,0.5
		C28.37,42.51,29.58,36.54,29.13,30.66z M58.26,76.81c-0.33-0.43-0.55-0.71-0.77-1c-2.31-3.09-3.7-6.62-4.81-10.28
		c-0.15-0.51-0.37-0.73-0.93-0.71c-1.16,0.04-2.31,0.05-3.47,0c-0.63-0.03-0.86,0.21-1.04,0.79c-0.95,3.14-2.15,6.17-3.92,8.95
		c-0.48,0.75-1.03,1.45-1.61,2.25C47.26,76.81,52.69,76.81,58.26,76.81z M49.94,61.86c1.38,0,2.76,0.01,4.14,0
		c1.13-0.01,1.81-0.56,1.82-1.44c0.02-0.92-0.62-1.5-1.75-1.51c-2.79-0.02-5.58-0.02-8.37,0c-1.11,0.01-1.72,0.55-1.73,1.44
		c-0.01,0.92,0.64,1.5,1.74,1.51C47.18,61.87,48.56,61.86,49.94,61.86z"/>
	<path class="st8" d="M42.68,45.9c0.09-0.68,0.19-1.6,0.35-2.52c0.1-0.6-0.01-1.07-0.49-1.5c-0.59-0.52-1.11-1.12-1.65-1.7
		c-0.85-0.89-1.16-1.93-0.75-3.11c0.41-1.16,1.23-1.94,2.48-1.99c2.31-0.08,3.88-1.01,4.63-3.3c0.39-1.19,1.39-1.82,2.69-1.84
		c1.29-0.01,2.17,0.66,2.77,1.76c0.3,0.54,0.67,1.06,0.88,1.64c0.36,1,1.08,1.33,2.05,1.41c0.67,0.06,1.34,0.2,2,0.35
		c2.25,0.53,3.12,3.06,1.65,4.84c-0.63,0.76-1.37,1.43-2,2.19c-0.22,0.26-0.36,0.68-0.35,1.02c0.03,0.76,0.18,1.51,0.29,2.26
		c0.2,1.31-0.01,2.49-1.16,3.32c-1.11,0.8-2.25,0.68-3.43,0.09c-0.92-0.46-1.89-1.16-2.83-1.15c-0.92,0.01-1.83,0.8-2.74,1.22
		C44.83,49.95,42.59,48.53,42.68,45.9z M49.98,32.9c-0.65,1.22-1.24,2.27-1.79,3.35c-0.31,0.61-0.76,0.94-1.43,1.05
		c-1.23,0.21-2.46,0.46-3.83,0.73c0.77,0.8,1.37,1.56,2.1,2.16c1.06,0.87,1.25,1.91,0.99,3.18c-0.19,0.92-0.25,1.86-0.38,2.92
		c1.17-0.56,2.19-1.03,3.19-1.55c0.74-0.39,1.43-0.4,2.17-0.02c1.05,0.53,2.13,1.01,3.32,1.57c-0.14-1.02-0.2-1.92-0.41-2.79
		c-0.32-1.34-0.05-2.4,1.03-3.32c0.73-0.62,1.35-1.38,2.1-2.17c-1.39-0.26-2.57-0.53-3.77-0.68c-0.74-0.09-1.16-0.47-1.48-1.09
		C51.24,35.19,50.65,34.13,49.98,32.9z"/>
	<path class="st8" d="M51.48,23.15c0.02,0.77-0.64,1.46-1.43,1.5c-0.81,0.04-1.54-0.64-1.56-1.45c-0.01-0.77,0.65-1.47,1.43-1.5
		C50.73,21.66,51.46,22.34,51.48,23.15z"/>
	<path class="st8" d="M49.98,85.77c-0.99,0-1.97,0.01-2.96,0c-0.96-0.02-1.61-0.63-1.61-1.48c0-0.81,0.61-1.46,1.53-1.47
		c2.03-0.03,4.06-0.03,6.08,0c0.92,0.01,1.53,0.66,1.53,1.47c0,0.84-0.66,1.46-1.61,1.48C51.95,85.78,50.97,85.77,49.98,85.77z"/>
</g>
</svg>
