<svg width="32" height="32" viewBox="0 0 32 32" fill="none" xmlns="http://www.w3.org/2000/svg">
<path d="M24.3281 25.7423L21.412 22.8262C21.0457 22.4599 21.0653 21.8464 21.4558 21.4559C21.8464 21.0653 22.4599 21.0457 22.8262 21.412L25.7423 24.3281L25.8069 24.3996C26.1052 24.7702 26.0646 25.3323 25.6985 25.6985C25.3323 26.0647 24.7702 26.1052 24.3996 25.8069L24.3281 25.7423Z" fill="#232323" fill-opacity="0.84"/>
<path d="M8.77175 10.186L5.85567 7.26991C5.48935 6.90359 5.50897 6.29005 5.8995 5.89952C6.29002 5.509 6.90356 5.48937 7.26988 5.85569L10.186 8.77178L10.2505 8.84324C10.5489 9.21391 10.5083 9.77601 10.1421 10.1422C9.77598 10.5083 9.21389 10.5489 8.84322 10.2506L8.77175 10.186Z" fill="#232323" fill-opacity="0.84"/>
<path d="M25.7423 7.26988L22.8262 10.186C22.4599 10.5523 21.8464 10.5327 21.4558 10.1421C21.0653 9.75161 21.0457 9.13807 21.412 8.77175L24.3281 5.85567L24.3996 5.79111C24.7702 5.49275 25.3323 5.53334 25.6985 5.8995C26.0646 6.26565 26.1052 6.82774 25.8069 7.19841L25.7423 7.26988Z" fill="#232323" fill-opacity="0.84"/>
<path d="M10.186 22.8262L7.26987 25.7423C6.90356 26.1086 6.29002 26.089 5.89949 25.6985C5.50897 25.308 5.48934 24.6944 5.85566 24.3281L8.77175 21.412L8.84321 21.3475C9.21388 21.0491 9.77597 21.0897 10.1421 21.4559C10.5083 21.822 10.5489 22.3841 10.2505 22.7548L10.186 22.8262Z" fill="#232323" fill-opacity="0.84"/>
<circle cx="16" cy="16" r="6" fill="#232323" fill-opacity="0.84"/>
<path d="M15 29.062V24.938C15 24.4199 15.4477 24 16 24C16.5523 24 17 24.4199 17 24.938V29.062L16.9951 29.1581C16.944 29.6312 16.5178 30 16 30C15.4822 30 15.056 29.6312 15.0049 29.1581L15 29.062Z" fill="#323232"/>
<path d="M15 7.06195V2.93798C15 2.41993 15.4477 1.99997 16 1.99997C16.5523 1.99997 17 2.41993 17 2.93798V7.06195L16.9951 7.15814C16.944 7.63121 16.5178 7.99997 16 7.99997C15.4822 7.99997 15.056 7.63121 15.0049 7.15814L15 7.06195Z" fill="#323232"/>
<path d="M29.062 17L24.938 17C24.42 17 24 16.5523 24 16C24 15.4477 24.42 15 24.938 15L29.062 15L29.1582 15.0049C29.6312 15.056 30 15.4821 30 16C30 16.5178 29.6312 16.944 29.1582 16.9951L29.062 17Z" fill="#323232"/>
<path d="M7.06199 17L2.93802 17C2.41996 17 2 16.5523 2 16C2 15.4477 2.41996 15 2.93802 15L7.06198 15L7.15817 15.0049C7.63124 15.056 8 15.4821 8 16C8 16.5178 7.63124 16.944 7.15817 16.9951L7.06199 17Z" fill="#323232"/>
</svg>
