<svg width="684" height="666" viewBox="0 0 684 666" fill="none" xmlns="http://www.w3.org/2000/svg">
<path fill-rule="evenodd" clip-rule="evenodd" d="M130.506 80.1428C125.728 80.1428 121.603 83.4878 120.616 88.1622L1.16403 653.803C-0.163086 660.088 4.63098 666 11.0539 666H277.871C374.301 666 451.02 643.257 508.029 597.771C565.645 552.285 604.156 478.598 623.563 376.71C626.153 363.187 628.128 350.142 629.489 337.574C629.969 333.14 627.399 328.96 623.261 327.296L589.543 313.738C586.484 312.508 583.028 312.913 580.252 314.692C577.507 316.451 575.697 319.381 575.505 322.635L573.119 363.132C572.88 367.199 570.221 370.725 566.377 372.075L563.997 372.91C544.376 379.799 523.332 383.663 501.431 383.949L498.821 383.984C494.722 384.04 490.995 381.613 489.386 377.842L473.677 341.007C472.345 337.886 469.531 335.664 466.217 334.933C466.135 334.915 466.052 334.897 465.97 334.879C462.675 334.146 459.205 334.957 456.683 337.199L429.456 361.397C427.766 362.899 426.631 364.925 426.214 367.147C425.628 370.262 425.002 373.45 424.335 376.71C416.451 415.525 406.141 444.939 393.405 464.953C381.276 484.967 365.507 498.612 346.1 505.89C327.299 513.168 303.95 516.807 276.052 516.807H237.603C231.17 516.807 226.374 510.878 227.718 504.587L283.441 243.701C284.437 239.037 288.557 235.704 293.326 235.704H295.391C301.976 235.704 306.795 229.505 305.612 223.028C303.653 212.312 302.563 201.294 302.417 190.05L302.417 190.02L302.416 189.991L302.41 189.368C302.409 189.205 302.406 188.974 302.405 188.758L302.388 186.234C302.362 182.161 304.783 178.469 308.53 176.871L345.764 160.99C348.777 159.705 350.934 156.988 351.662 153.794C352.397 150.574 351.607 147.187 349.413 144.718L322.711 114.672C319.987 111.606 319.385 107.198 321.188 103.514L322.306 101.23C323.127 99.5534 323.97 97.8906 324.837 96.2416C328.572 89.1319 323.649 80.1428 315.617 80.1428H130.506Z" fill="#1268FA"/>
<path fill-rule="evenodd" clip-rule="evenodd" d="M675.142 187.436C680.575 185.451 684.254 180.293 683.986 174.512C683.642 167.059 682.838 159.545 681.554 152.002C680.623 146.539 679.459 141.174 678.075 135.915C676.559 130.16 671.273 126.308 665.327 126.234L628.553 125.776C623.341 125.711 618.658 122.692 616.07 118.164C614.519 115.449 612.881 112.798 611.16 110.214C608.317 105.942 607.684 100.506 609.846 95.8523L625.804 61.5151C628.27 56.2085 627.172 49.8842 622.799 45.9988C613.197 37.4679 602.722 29.9632 591.56 23.6167C586.435 20.703 580.047 21.7422 575.828 25.8608L549.827 51.243C546.04 54.939 540.498 56.0927 535.412 54.6389C531.882 53.63 528.302 52.7648 524.679 52.049C519.621 51.0496 515.295 47.6469 513.526 42.7997L501.234 9.10661C499.204 3.54142 493.858 -0.168615 487.954 0.272293C482.207 0.701542 476.428 1.40542 470.632 2.39407C463.589 3.59523 456.71 5.18454 450.013 7.13636C444.423 8.76538 440.73 13.9736 440.658 19.7998L440.223 54.8466C440.158 60.0532 437.15 64.7309 432.645 67.3355C429.304 69.2671 426.06 71.3377 422.919 73.5385C418.609 76.5595 413.027 77.2893 408.255 75.0683L377.849 60.9159C372.454 58.4048 366.018 59.5902 362.163 64.1257C353.636 74.1581 346.2 85.0894 340 96.7185C337.285 101.81 338.376 108.03 342.403 112.161L366.063 136.436C369.671 140.137 370.862 145.526 369.549 150.526C368.66 153.908 367.898 157.336 367.266 160.802C366.329 165.942 362.908 170.354 358.004 172.146L327.871 183.156C322.302 185.19 318.594 190.552 319.045 196.468C319.477 202.112 320.172 207.786 321.141 213.476C322.465 221.25 324.261 228.825 326.494 236.177C328.171 241.697 333.338 245.322 339.103 245.394L370.11 245.78C375.375 245.845 380.095 248.924 382.664 253.524C384.461 256.74 386.378 259.87 388.41 262.908C391.269 267.183 391.91 272.633 389.743 277.297L377.217 304.251C374.745 309.569 375.853 315.907 380.245 319.79C390.51 328.862 401.764 336.765 413.784 343.339C418.886 346.13 425.166 345.057 429.329 340.994L449.26 321.537C453.055 317.833 458.613 316.682 463.707 318.151C467.763 319.32 471.885 320.299 476.062 321.079C481.185 322.037 485.582 325.456 487.37 330.355L496.964 356.653C498.95 362.098 504.117 365.782 509.902 365.503C517.241 365.15 524.638 364.351 532.063 363.084C538.238 362.031 544.288 360.679 550.201 359.046C555.879 357.478 559.657 352.225 559.73 346.33L560.088 317.498C560.152 312.33 563.117 307.679 567.571 305.062C571.092 302.993 574.503 300.769 577.797 298.4C582.124 295.289 587.778 294.513 592.609 296.761L620.338 309.667C625.559 312.097 631.775 311.074 635.678 306.837C644.75 296.988 652.722 286.171 659.444 274.599C662.43 269.458 661.412 263 657.263 258.744L633.796 234.667C630.234 231.012 629.025 225.706 630.262 220.753C631.054 217.587 631.735 214.383 632.302 211.145C633.21 205.963 636.642 201.504 641.58 199.699L675.142 187.436ZM570.903 170.306C577.408 208.497 551.745 244.733 513.583 251.242C475.422 257.751 439.213 232.068 432.708 193.877C426.204 155.686 451.867 119.45 490.028 112.941C528.19 106.432 564.399 132.115 570.903 170.306ZM508.32 223.676C530.911 219.823 546.104 198.371 542.253 175.762C538.402 153.153 516.967 137.949 494.375 141.802C471.783 145.655 456.591 167.107 460.442 189.716C464.292 212.325 485.728 227.53 508.32 223.676Z" fill="#1268FA"/>
</svg>
