<svg width="40" height="40" viewBox="0 0 40 40" fill="none" xmlns="http://www.w3.org/2000/svg">
<path d="M28.3281 29.7423L25.412 26.8262C25.0457 26.4599 25.0653 25.8464 25.4558 25.4559C25.8464 25.0653 26.4599 25.0457 26.8262 25.412L29.7423 28.3281L29.8069 28.3996C30.1052 28.7702 30.0646 29.3323 29.6985 29.6985C29.3323 30.0647 28.7702 30.1052 28.3996 29.8069L28.3281 29.7423Z" fill="#232323" fill-opacity="0.84"/>
<path d="M12.7718 14.186L9.85567 11.2699C9.48935 10.9036 9.50897 10.29 9.8995 9.89952C10.29 9.509 10.9036 9.48937 11.2699 9.85569L14.186 12.7718L14.2505 12.8432C14.5489 13.2139 14.5083 13.776 14.1421 14.1422C13.776 14.5083 13.2139 14.5489 12.8432 14.2506L12.7718 14.186Z" fill="#232323" fill-opacity="0.84"/>
<path d="M29.7423 11.2699L26.8262 14.186C26.4599 14.5523 25.8464 14.5327 25.4558 14.1421C25.0653 13.7516 25.0457 13.1381 25.412 12.7718L28.3281 9.85567L28.3996 9.79111C28.7702 9.49275 29.3323 9.53334 29.6985 9.8995C30.0646 10.2657 30.1052 10.8277 29.8069 11.1984L29.7423 11.2699Z" fill="#232323" fill-opacity="0.84"/>
<path d="M14.186 26.8262L11.2699 29.7423C10.9036 30.1086 10.29 30.089 9.89949 29.6985C9.50897 29.308 9.48934 28.6944 9.85566 28.3281L12.7717 25.412L12.8432 25.3475C13.2139 25.0491 13.776 25.0897 14.1421 25.4559C14.5083 25.822 14.5489 26.3841 14.2505 26.7548L14.186 26.8262Z" fill="#232323" fill-opacity="0.84"/>
<circle cx="20" cy="20" r="6" fill="#232323" fill-opacity="0.84"/>
<path d="M19 33.062V28.938C19 28.4199 19.4477 28 20 28C20.5523 28 21 28.4199 21 28.938V33.062L20.9951 33.1581C20.944 33.6312 20.5178 34 20 34C19.4822 34 19.056 33.6312 19.0049 33.1581L19 33.062Z" fill="#323232"/>
<path d="M19 11.062V6.93798C19 6.41993 19.4477 5.99997 20 5.99997C20.5523 5.99997 21 6.41993 21 6.93798V11.062L20.9951 11.1581C20.944 11.6312 20.5178 12 20 12C19.4822 12 19.056 11.6312 19.0049 11.1581L19 11.062Z" fill="#323232"/>
<path d="M33.062 21L28.938 21C28.42 21 28 20.5523 28 20C28 19.4477 28.42 19 28.938 19L33.062 19L33.1582 19.0049C33.6312 19.056 34 19.4821 34 20C34 20.5178 33.6312 20.944 33.1582 20.9951L33.062 21Z" fill="#323232"/>
<path d="M11.062 21L6.93802 21C6.41996 21 6 20.5523 6 20C6 19.4477 6.41996 19 6.93802 19L11.062 19L11.1582 19.0049C11.6312 19.056 12 19.4821 12 20C12 20.5178 11.6312 20.944 11.1582 20.9951L11.062 21Z" fill="#323232"/>
</svg>
