<svg xmlns="http://www.w3.org/2000/svg" width="271" height="35" viewBox="0 0 271 35" fill="none"><path d="M40.9211 18.62C40.9211 14.21 44.5811 10.7 49.1411 10.7C53.7011 10.7 57.3611 14.21 57.3611 18.62C57.3611 22.97 53.7011 26.45 49.1411 26.45C44.5811 26.45 40.9211 22.97 40.9211 18.62ZM46.1411 18.59C46.1411 20.27 47.4611 21.62 49.1411 21.62C50.8211 21.62 52.1411 20.27 52.1411 18.59C52.1411 16.91 50.8511 15.53 49.1411 15.53C47.4911 15.53 46.1411 16.91 46.1411 18.59ZM70.9848 25.37V18.56C70.9848 16.73 69.9048 15.5 68.1348 15.5C66.3648 15.5 65.2248 16.73 65.2248 18.56V25.37C65.2248 25.73 64.8648 26 64.5048 26H60.7248C60.3348 26 60.0348 25.7 60.0348 25.31V11.84C60.0348 11.45 60.3348 11.15 60.7248 11.15H64.5048C64.8648 11.15 65.2248 11.42 65.2248 11.78V12.32C66.1548 11.51 67.5948 10.7 69.7848 10.7C73.7148 10.7 76.1748 13.52 76.1748 17.09V25.37C76.1748 25.73 75.8148 26 75.4548 26H71.7048C71.3448 26 70.9848 25.73 70.9848 25.37ZM86.6924 10.7C91.5824 10.7 94.3424 14.48 94.3424 18.11V19.04C94.3424 19.49 94.1924 19.82 93.5024 19.82H84.0524C84.2624 21.26 85.4924 22.07 86.7824 22.07C87.9824 22.07 88.7324 21.65 89.4224 20.93C89.6324 20.72 89.8724 20.54 90.2324 20.75L93.2924 22.61C93.6824 22.85 93.5624 23.33 93.4124 23.54C92.2424 25.19 90.0524 26.45 86.6924 26.45C81.8924 26.45 78.7124 23 78.7124 18.68C78.7124 14.21 82.0124 10.7 86.6924 10.7ZM84.1724 16.67H89.2424C88.7924 15.32 87.6824 14.81 86.7224 14.81C85.6724 14.81 84.6224 15.44 84.1724 16.67ZM107.867 25.37V18.56C107.867 16.73 106.787 15.5 105.017 15.5C103.247 15.5 102.107 16.73 102.107 18.56V25.37C102.107 25.73 101.747 26 101.387 26H97.6073C97.2173 26 96.9173 25.7 96.9173 25.31V11.84C96.9173 11.45 97.2173 11.15 97.6073 11.15H101.387C101.747 11.15 102.107 11.42 102.107 11.78V12.32C103.037 11.51 104.477 10.7 106.667 10.7C110.597 10.7 113.057 13.52 113.057 17.09V25.37C113.057 25.73 112.697 26 112.337 26H108.587C108.227 26 107.867 25.73 107.867 25.37ZM123.575 10.7C128.465 10.7 131.225 14.48 131.225 18.11V19.04C131.225 19.49 131.075 19.82 130.385 19.82H120.935C121.145 21.26 122.375 22.07 123.665 22.07C124.865 22.07 125.615 21.65 126.305 20.93C126.515 20.72 126.755 20.54 127.115 20.75L130.175 22.61C130.565 22.85 130.445 23.33 130.295 23.54C129.125 25.19 126.935 26.45 123.575 26.45C118.775 26.45 115.595 23 115.595 18.68C115.595 14.21 118.895 10.7 123.575 10.7ZM121.055 16.67H126.125C125.675 15.32 124.565 14.81 123.605 14.81C122.555 14.81 121.505 15.44 121.055 16.67ZM135.155 21.47V15.44H133.325C132.935 15.44 132.635 15.11 132.635 14.72V11.84C132.635 11.45 132.935 11.15 133.325 11.15H135.155V7.49C135.155 7.1 135.485 6.8 135.875 6.8H139.655C140.045 6.8 140.345 7.1 140.345 7.49V11.15H144.365C144.755 11.15 145.085 11.45 145.085 11.84V14.72C145.085 15.11 144.755 15.44 144.365 15.44H140.345V20.18C140.345 21.5 141.275 21.56 141.515 21.56C141.785 21.56 142.235 21.47 142.715 21.14C143.225 20.81 143.735 20.81 144.065 21.29L145.355 23.36C145.655 23.81 145.625 24.23 145.265 24.59C144.215 25.76 142.415 26.39 140.525 26.39C137.825 26.39 135.155 24.98 135.155 21.47ZM160.692 10.7C163.902 10.7 166.062 11.81 166.932 12.59C167.472 13.04 167.502 13.55 166.992 14.12L165.612 15.62C165.162 16.1 164.682 16.1 163.992 15.71C163.152 15.23 161.982 14.66 160.812 14.66C160.062 14.66 159.492 14.93 159.492 15.32C159.492 15.77 159.822 15.98 160.902 16.19L163.092 16.64C165.462 17.12 167.802 18.26 167.802 21.23C167.802 24.11 165.282 26.45 160.932 26.45C158.532 26.45 156.642 25.82 155.352 25.01C153.672 23.96 153.522 22.94 154.362 22.31L156.072 21.05C156.822 20.48 157.302 20.75 157.752 21.14C158.622 21.86 159.732 22.49 161.052 22.49C161.982 22.49 162.492 22.1 162.492 21.71C162.492 21.14 161.922 20.93 160.752 20.69L158.232 20.15C155.742 19.58 154.152 18.2 154.152 15.71C154.152 12.98 156.522 10.7 160.692 10.7ZM177.974 10.7C182.864 10.7 185.624 14.48 185.624 18.11V19.04C185.624 19.49 185.474 19.82 184.784 19.82H175.334C175.544 21.26 176.774 22.07 178.064 22.07C179.264 22.07 180.014 21.65 180.704 20.93C180.914 20.72 181.154 20.54 181.514 20.75L184.574 22.61C184.964 22.85 184.844 23.33 184.694 23.54C183.524 25.19 181.334 26.45 177.974 26.45C173.174 26.45 169.994 23 169.994 18.68C169.994 14.21 173.294 10.7 177.974 10.7ZM175.454 16.67H180.524C180.074 15.32 178.964 14.81 178.004 14.81C176.954 14.81 175.904 15.44 175.454 16.67ZM196.449 10.88H196.839C197.169 10.88 197.649 10.97 197.649 11.78V15.47C197.649 16.28 197.049 16.4 196.719 16.4H195.849C194.079 16.4 193.389 17.21 193.389 18.92V25.37C193.389 25.73 193.029 26 192.669 26H188.889C188.499 26 188.199 25.7 188.199 25.31V11.84C188.199 11.45 188.499 11.15 188.889 11.15H192.459C192.819 11.15 193.179 11.42 193.179 11.78V12.62C194.109 11.33 195.249 10.88 196.449 10.88ZM210.081 26H204.501C204.021 26 203.721 25.67 203.601 25.28L199.341 12.32C199.131 11.69 199.461 11.15 200.061 11.15H204.051C204.621 11.15 204.831 11.51 204.951 11.87L207.501 20.72L209.871 11.87C209.961 11.51 210.171 11.15 210.741 11.15H214.521C215.121 11.15 215.451 11.69 215.241 12.32L210.981 25.28C210.861 25.67 210.561 26 210.081 26ZM224.494 10.7C229.384 10.7 232.144 14.48 232.144 18.11V19.04C232.144 19.49 231.994 19.82 231.304 19.82H221.854C222.064 21.26 223.294 22.07 224.584 22.07C225.784 22.07 226.534 21.65 227.224 20.93C227.434 20.72 227.674 20.54 228.034 20.75L231.094 22.61C231.484 22.85 231.364 23.33 231.214 23.54C230.044 25.19 227.854 26.45 224.494 26.45C219.694 26.45 216.514 23 216.514 18.68C216.514 14.21 219.814 10.7 224.494 10.7ZM221.974 16.67H227.044C226.594 15.32 225.484 14.81 224.524 14.81C223.474 14.81 222.424 15.44 221.974 16.67ZM242.969 10.88H243.359C243.689 10.88 244.169 10.97 244.169 11.78V15.47C244.169 16.28 243.569 16.4 243.239 16.4H242.369C240.599 16.4 239.909 17.21 239.909 18.92V25.37C239.909 25.73 239.549 26 239.189 26H235.409C235.019 26 234.719 25.7 234.719 25.31V11.84C234.719 11.45 235.019 11.15 235.409 11.15H238.979C239.339 11.15 239.699 11.42 239.699 11.78V12.62C240.629 11.33 241.769 10.88 242.969 10.88ZM252.707 10.7C255.917 10.7 258.077 11.81 258.947 12.59C259.487 13.04 259.517 13.55 259.007 14.12L257.627 15.62C257.177 16.1 256.697 16.1 256.007 15.71C255.167 15.23 253.997 14.66 252.827 14.66C252.077 14.66 251.507 14.93 251.507 15.32C251.507 15.77 251.837 15.98 252.917 16.19L255.107 16.64C257.477 17.12 259.817 18.26 259.817 21.23C259.817 24.11 257.297 26.45 252.947 26.45C250.547 26.45 248.657 25.82 247.367 25.01C245.687 23.96 245.537 22.94 246.377 22.31L248.087 21.05C248.837 20.48 249.317 20.75 249.767 21.14C250.637 21.86 251.747 22.49 253.067 22.49C253.997 22.49 254.507 22.1 254.507 21.71C254.507 21.14 253.937 20.93 252.767 20.69L250.247 20.15C247.757 19.58 246.167 18.2 246.167 15.71C246.167 12.98 248.537 10.7 252.707 10.7Z" fill="#4343F0"></path><path fill-rule="evenodd" clip-rule="evenodd" d="M30.3828 18.3379L30.4158 17.7258C30.4226 17.5994 30.4261 17.4722 30.4261 17.3441C30.4261 13.1245 26.6527 9.70376 21.9981 9.70376C18.8115 9.70376 16.0357 11.3064 14.6018 13.6777L13.928 14.7919L12.6451 14.2801C12.0372 14.0375 11.3639 13.9021 10.6517 13.9021C7.91535 13.9021 5.69708 15.9131 5.69708 18.3937C5.69708 18.418 5.69733 18.4434 5.69779 18.4704L5.71422 19.4209L4.7421 19.7772C2.83828 20.475 1.52902 22.165 1.52902 24.1002C1.52902 26.6754 3.83188 28.7631 6.67257 28.7631H8.02739V17.674H26.7579V28.7473C30.1035 28.5252 32.7417 25.9942 32.7417 22.9046C32.7417 21.2777 32.0193 19.8264 30.86 18.772L30.3828 18.3379ZM26.7579 30.1364C26.5996 30.1449 26.44 30.1492 26.2793 30.1492H25.2289V19.0601H9.55641V30.1492H6.67257C2.98742 30.1492 0 27.441 0 24.1002C0 21.5882 1.69972 19.3972 4.16896 18.4921C4.16839 18.4594 4.16805 18.4266 4.16805 18.3937C4.16805 15.1476 7.0709 12.516 10.6517 12.516C11.58 12.516 12.4627 12.6928 13.261 13.0114C14.9525 10.2141 18.2309 8.31763 21.9981 8.31763C27.4971 8.31763 31.9551 12.3589 31.9551 17.3441C31.9551 17.4948 31.951 17.6446 31.943 17.7935C33.375 19.096 34.2707 20.8946 34.2707 22.9046C34.2707 26.76 30.9486 29.912 26.7579 30.1364Z" fill="#4343F0"></path><path fill-rule="evenodd" clip-rule="evenodd" d="M11.0858 0H23.7002V6.69337C23.1445 6.62104 22.5763 6.58361 21.9986 6.58361C18.0793 6.58361 14.606 8.3063 12.4464 10.9566C12.0043 10.8692 11.5497 10.8135 11.0858 10.792V5.37126H7.07208L11.0858 0ZM23.7002 8.44758V8.44905C23.1472 8.36272 22.5786 8.31773 21.9984 8.31773C18.2313 8.31773 14.9528 10.2142 13.2613 13.0115C12.5883 12.7429 11.8554 12.5751 11.0858 12.5291V12.5276C11.8555 12.5737 12.5885 12.7415 13.2615 13.01C14.953 10.2127 18.2314 8.31628 21.9986 8.31628C22.5787 8.31628 23.1472 8.36125 23.7002 8.44758Z" fill="#4343F0"></path><path fill-rule="evenodd" clip-rule="evenodd" d="M23.6998 27.375H11.0854V33.2675H9.27594C8.79748 33.2675 8.40961 33.6553 8.40961 34.1338C8.40961 34.6123 8.79748 35.0001 9.27594 35.0001H25.5093C25.9877 35.0001 26.3756 34.6123 26.3756 34.1338C26.3756 33.6553 25.9877 33.2675 25.5093 33.2675H23.6998V27.375Z" fill="#4343F0"></path><path fill-rule="evenodd" clip-rule="evenodd" d="M25.229 22.5243L9.55652 22.5243L9.55652 21.1382L25.229 21.1382L25.229 22.5243Z" fill="#4343F0"></path><path fill-rule="evenodd" clip-rule="evenodd" d="M25.229 25.9909L9.55652 25.9909L9.55652 24.6047L25.229 24.6047L25.229 25.9909Z" fill="#4343F0"></path><path fill-rule="evenodd" clip-rule="evenodd" d="M23.6996 22.1786L22.5533 22.1786L22.5533 21.4858L23.6996 21.4858L23.6996 22.1786Z" fill="#4343F0"></path><path fill-rule="evenodd" clip-rule="evenodd" d="M23.6996 18.712L22.5533 18.712L22.5533 18.0193L23.6996 18.0193L23.6996 18.712Z" fill="#4343F0"></path><path fill-rule="evenodd" clip-rule="evenodd" d="M23.6996 25.643L22.5533 25.643L22.5533 24.9502L23.6996 24.9502L23.6996 25.643Z" fill="#4343F0"></path></svg>