<svg xmlns="http://www.w3.org/2000/svg" xmlns:xlink="http://www.w3.org/1999/xlink" width="47" zoomAndPan="magnify" viewBox="0 0 35.25 35.250001" height="47" preserveAspectRatio="xMidYMid meet" version="1.2"><defs><clipPath id="84b132c463"><path d="M 0 0 L 33.78125 0 L 33.78125 33.78125 L 0 33.78125 Z M 0 0 "/></clipPath><clipPath id="af1243e124"><path d="M 4.71875 12.863281 L 11.503906 12.863281 L 11.503906 26.910156 L 4.71875 26.910156 Z M 4.71875 12.863281 "/></clipPath><clipPath id="a3cd24423a"><path d="M 0.71875 0.863281 L 7.503906 0.863281 L 7.503906 14.910156 L 0.71875 14.910156 Z M 0.71875 0.863281 "/></clipPath><clipPath id="a38eb6eb2d"><rect x="0" width="8" y="0" height="15"/></clipPath></defs><g id="02d8f5e06b"><g clip-rule="nonzero" clip-path="url(#84b132c463)"><path style=" stroke:none;fill-rule:nonzero;fill:#5946fb;fill-opacity:1;" d="M 33.792969 23.722656 C 33.109375 24.847656 28.167969 32.65625 18.824219 33.757812 C 17.128906 33.957031 10.460938 34.746094 5.183594 29.992188 C 0.136719 25.441406 0.0117188 19.125 0.0117188 18.125 C -0.0234375 8.671875 8.582031 0.59375 16.488281 0.046875 C 17.726562 -0.0429688 18.964844 -0.00390625 20.195312 0.160156 C 19.433594 0.773438 14.472656 4.902344 14.40625 11.605469 C 14.398438 12.617188 14.347656 17.695312 18.140625 21.207031 C 21.140625 23.984375 24.875 24.242188 27.210938 24.410156 C 29.445312 24.5625 31.640625 24.332031 33.792969 23.722656 Z M 33.792969 23.722656 "/></g><path style=" stroke:none;fill-rule:nonzero;fill:#5946fb;fill-opacity:1;" d="M 30.414062 9.472656 C 30.296875 14.226562 26.136719 17.496094 22.410156 18.007812 C 20.941406 18.195312 19.519531 18.015625 18.140625 17.472656 C 18.675781 17.109375 24.011719 13.378906 24.011719 7.070312 C 24.011719 3.871094 22.636719 1.492188 21.917969 0.417969 C 26.8125 0.765625 30.523438 4.878906 30.414062 9.472656 Z M 30.414062 9.472656 "/><g clip-rule="nonzero" clip-path="url(#af1243e124)"><g transform="matrix(1,0,0,1,4,12)"><g clip-path="url(#a38eb6eb2d)"><g clip-rule="nonzero" clip-path="url(#a3cd24423a)"><path style=" stroke:none;fill-rule:nonzero;fill:#5946fb;fill-opacity:1;" d="M 0.71875 0.863281 L 7.503906 0.863281 L 7.503906 14.910156 L 0.71875 14.910156 Z M 0.71875 0.863281 "/></g></g></g></g></g></svg>