<svg xmlns="http://www.w3.org/2000/svg" xmlns:xlink="http://www.w3.org/1999/xlink" width="114" zoomAndPan="magnify" viewBox="0 0 85.5 85.499997" height="114" preserveAspectRatio="xMidYMid meet" version="1.2"><defs><clipPath id="6db71452a5"><path d="M 0 0 L 84.472656 0 L 84.472656 84.472656 L 0 84.472656 Z M 0 0 "/></clipPath><clipPath id="1cac7048f8"><path d="M 42.238281 0 C 18.910156 0 0 18.910156 0 42.238281 C 0 65.5625 18.910156 84.472656 42.238281 84.472656 C 65.5625 84.472656 84.472656 65.5625 84.472656 42.238281 C 84.472656 18.910156 65.5625 0 42.238281 0 Z M 42.238281 0 "/></clipPath><clipPath id="038b8f4487"><path d="M 0 0 L 84.472656 0 L 84.472656 84.472656 L 0 84.472656 Z M 0 0 "/></clipPath><clipPath id="16f58cee55"><path d="M 42.238281 0 C 18.910156 0 0 18.910156 0 42.238281 C 0 65.5625 18.910156 84.472656 42.238281 84.472656 C 65.5625 84.472656 84.472656 65.5625 84.472656 42.238281 C 84.472656 18.910156 65.5625 0 42.238281 0 Z M 42.238281 0 "/></clipPath><clipPath id="125045998a"><rect x="0" width="85" y="0" height="85"/></clipPath><clipPath id="0c729fe57a"><path d="M 12.558594 12.449219 L 72 12.449219 L 72 72.101562 L 12.558594 72.101562 Z M 12.558594 12.449219 "/></clipPath></defs><g id="29a998213e"><g clip-rule="nonzero" clip-path="url(#6db71452a5)"><g clip-rule="nonzero" clip-path="url(#1cac7048f8)"><g transform="matrix(1,0,0,1,0,0)"><g clip-path="url(#125045998a)"><g clip-rule="nonzero" clip-path="url(#038b8f4487)"><g clip-rule="nonzero" clip-path="url(#16f58cee55)"><path style=" stroke:none;fill-rule:nonzero;fill:#5946fb;fill-opacity:1;" d="M 0 0 L 84.472656 0 L 84.472656 84.472656 L 0 84.472656 Z M 0 0 "/></g></g></g></g></g></g><g clip-rule="nonzero" clip-path="url(#0c729fe57a)"><path style=" stroke:none;fill-rule:nonzero;fill:#f7f6ff;fill-opacity:1;" d="M 71.890625 54.097656 C 70.683594 56.070312 62.011719 69.785156 45.605469 71.71875 C 42.632812 72.066406 30.925781 73.449219 21.65625 65.105469 C 12.800781 57.117188 12.578125 46.027344 12.578125 44.269531 C 12.519531 27.675781 27.625 13.492188 41.507812 12.527344 C 43.683594 12.375 45.855469 12.441406 48.015625 12.730469 C 46.679688 13.808594 37.964844 21.054688 37.851562 32.824219 C 37.835938 34.605469 37.75 43.519531 44.410156 49.683594 C 49.671875 54.554688 56.230469 55.011719 60.332031 55.304688 C 64.253906 55.574219 68.105469 55.171875 71.890625 54.097656 Z M 71.890625 54.097656 "/></g><path style=" stroke:none;fill-rule:nonzero;fill:#f7f6ff;fill-opacity:1;" d="M 65.953125 29.078125 C 65.753906 37.425781 58.445312 43.164062 51.902344 44.0625 C 49.324219 44.390625 46.828125 44.078125 44.410156 43.125 C 45.347656 42.492188 54.714844 35.941406 54.710938 24.863281 C 54.710938 19.246094 52.304688 15.066406 51.039062 13.179688 C 59.632812 13.796875 66.148438 21.015625 65.953125 29.078125 Z M 65.953125 29.078125 "/></g></svg>