<svg xmlns="http://www.w3.org/2000/svg" viewBox="0 0 322.83 324.23"><defs><style>.cls-1{fill:#8300e9;}</style></defs><g id="Layer_2" data-name="Layer 2"><g id="Layer_1-2" data-name="Layer 1"><path class="cls-1" d="M322.83,226.69c-6.55,10.73-53.77,85.37-143.06,95.9-16.17,1.9-79.89,9.42-130.34-36C1.22,243.11,0,182.76,0,173.19-.31,82.87,81.9,5.67,157.46.43a175.34,175.34,0,0,1,35.44,1.1c-7.29,5.86-54.71,45.3-55.32,109.36-.1,9.69-.56,58.21,35.68,91.77,28.64,26.51,64.35,29,86.67,30.59A184.47,184.47,0,0,0,322.83,226.69Z"/><path class="cls-1" d="M290.52,90.5c-1.09,45.43-40.87,76.67-76.47,81.57a82.76,82.76,0,0,1-40.79-5.1c5.12-3.46,56.09-39.12,56.08-99.41,0-30.57-13.11-53.31-20-63.58C256.12,7.33,291.58,46.62,290.52,90.5Z"/></g></g></svg>