<svg xmlns="http://www.w3.org/2000/svg" xmlns:xlink="http://www.w3.org/1999/xlink" width="82" zoomAndPan="magnify" viewBox="0 0 61.5 62.249996" height="83" preserveAspectRatio="xMidYMid meet" version="1.2"><defs><clipPath id="f7f036c131"><path d="M 0.117188 0 L 60.625 0 L 60.625 61.214844 L 0.117188 61.214844 Z M 0.117188 0 "/></clipPath><clipPath id="e6819cd5de"><path d="M 19.386719 0 L 41.355469 0 C 46.464844 0 51.367188 2.03125 54.980469 5.644531 C 58.59375 9.257812 60.625 14.15625 60.625 19.269531 L 60.625 41.871094 C 60.625 46.980469 58.59375 51.882812 54.980469 55.496094 C 51.367188 59.109375 46.464844 61.136719 41.355469 61.136719 L 19.386719 61.136719 C 14.277344 61.136719 9.375 59.109375 5.761719 55.496094 C 2.148438 51.882812 0.117188 46.980469 0.117188 41.871094 L 0.117188 19.269531 C 0.117188 14.15625 2.148438 9.257812 5.761719 5.644531 C 9.375 2.03125 14.277344 0 19.386719 0 Z M 19.386719 0 "/></clipPath><clipPath id="a438e38777"><path d="M 0.117188 0 L 60.625 0 L 60.625 61.183594 L 0.117188 61.183594 Z M 0.117188 0 "/></clipPath><clipPath id="380e3d5292"><path d="M 19.386719 0 L 41.355469 0 C 46.464844 0 51.367188 2.03125 54.980469 5.644531 C 58.59375 9.257812 60.625 14.15625 60.625 19.269531 L 60.625 41.871094 C 60.625 46.980469 58.59375 51.882812 54.980469 55.496094 C 51.367188 59.109375 46.464844 61.136719 41.355469 61.136719 L 19.386719 61.136719 C 14.277344 61.136719 9.375 59.109375 5.761719 55.496094 C 2.148438 51.882812 0.117188 46.980469 0.117188 41.871094 L 0.117188 19.269531 C 0.117188 14.15625 2.148438 9.257812 5.761719 5.644531 C 9.375 2.03125 14.277344 0 19.386719 0 Z M 19.386719 0 "/></clipPath><clipPath id="7af72876d8"><rect x="0" width="61" y="0" height="62"/></clipPath><clipPath id="0b677b05a8"><path d="M 13.308594 13.445312 L 47.398438 13.445312 L 47.398438 47.535156 L 13.308594 47.535156 Z M 13.308594 13.445312 "/></clipPath><clipPath id="8e0bee3d18"><path d="M 31 13.445312 L 45 13.445312 L 45 32 L 31 32 Z M 31 13.445312 "/></clipPath></defs><g id="a792783bc0"><g clip-rule="nonzero" clip-path="url(#f7f036c131)"><g clip-rule="nonzero" clip-path="url(#e6819cd5de)"><g transform="matrix(1,0,0,1,0,-0.000000000000004916)"><g clip-path="url(#7af72876d8)"><g clip-rule="nonzero" clip-path="url(#a438e38777)"><g clip-rule="nonzero" clip-path="url(#380e3d5292)"><path style=" stroke:none;fill-rule:nonzero;fill:#0e423e;fill-opacity:1;" d="M 0.117188 0 L 60.625 0 L 60.625 61.214844 L 0.117188 61.214844 Z M 0.117188 0 "/></g></g></g></g></g></g><g clip-rule="nonzero" clip-path="url(#0b677b05a8)"><path style=" stroke:none;fill-rule:nonzero;fill:#8eda91;fill-opacity:1;" d="M 47.410156 37.382812 C 46.71875 38.515625 41.734375 46.398438 32.304688 47.511719 C 30.597656 47.710938 23.867188 48.507812 18.539062 43.710938 C 13.449219 39.117188 13.320312 32.746094 13.320312 31.734375 C 13.289062 22.195312 21.96875 14.042969 29.949219 13.492188 C 31.199219 13.402344 32.449219 13.441406 33.691406 13.605469 C 32.921875 14.226562 27.914062 18.390625 27.847656 25.15625 C 27.839844 26.179688 27.789062 31.300781 31.617188 34.847656 C 34.640625 37.644531 38.414062 37.910156 40.769531 38.078125 C 43.023438 38.230469 45.238281 38 47.410156 37.382812 Z M 47.410156 37.382812 "/></g><g clip-rule="nonzero" clip-path="url(#8e0bee3d18)"><path style=" stroke:none;fill-rule:nonzero;fill:#8eda91;fill-opacity:1;" d="M 44 23.003906 C 43.886719 27.800781 39.683594 31.097656 35.925781 31.617188 C 34.441406 31.804688 33.007812 31.625 31.617188 31.078125 C 32.15625 30.710938 37.539062 26.945312 37.539062 20.578125 C 37.539062 17.351562 36.15625 14.949219 35.425781 13.867188 C 40.367188 14.21875 44.113281 18.367188 44 23.003906 Z M 44 23.003906 "/></g></g></svg>